<?xml version="1.0" encoding="UTF-8"?>
<svg width="69px" height="70px" viewBox="0 0 69 70" version="1.1" xmlns="http://www.w3.org/2000/svg" xmlns:xlink="http://www.w3.org/1999/xlink">
    <title>Text</title>
    <defs>
        <filter id="filter-1">
            <feColorMatrix in="SourceGraphic" type="matrix" values="0 0 0 0 1.000000 0 0 0 0 1.000000 0 0 0 0 1.000000 0 0 0 1.000000 0"></feColorMatrix>
        </filter>
        <polygon id="path-2" points="0.000512800585 0.544707476 68.465105 0.544707476 68.465105 69.7019417 0.000512800585 69.7019417"></polygon>
    </defs>
    <g id="Page-1" stroke="none" stroke-width="1" fill="none" fill-rule="evenodd">
        <g id="Text" transform="translate(-326.000000, -282.000000)" filter="url(#filter-1)">
            <g transform="translate(326.000000, 282.000000)">
                <g id="Group-3">
                    <mask id="mask-3" fill="white">
                        <use xlink:href="#path-2"></use>
                    </mask>
                    <g id="Clip-2"></g>
                    <path d="M61.6912185,56.6112274 L61.6912185,56.6112274 C60.6460714,59.525156 58.3992227,61.7947988 55.5145588,62.8651917 C41.3971008,68.0912274 27.0882983,68.0912274 12.9708403,62.8651917 C10.0847269,61.810906 7.83932773,59.5397988 6.79418067,56.6273345 C1.64962185,42.3944774 1.63367647,27.9697988 6.75214286,13.7515845 C7.82338235,10.7937274 10.1296639,8.50944167 13.0708613,7.45515595 C20.5231513,4.81944167 27.8580252,3.48694167 35.0189496,3.48694167 C42.0784034,3.48694167 48.9639076,4.7755131 55.6305252,7.3380131 C58.4296639,8.40694167 60.6185294,10.6619417 61.6607773,13.5319417 C66.8517227,27.8087274 66.8647689,42.305156 61.6912185,56.6112274 M64.3729412,12.5069417 C63.0523739,8.84622738 60.2416387,5.96158452 56.6597269,4.58515595 C42.5567647,-0.831236905 27.5666597,-0.80195119 12.1010924,4.6730131 C8.33073529,6.0055131 5.38953782,8.94872738 4.01098739,12.7265845 C-1.3510084,27.6183702 -1.33651261,42.7312631 4.05592437,57.608406 C5.38953782,61.3408702 8.2727521,64.2562631 11.9706303,65.603406 C19.3634874,68.3416202 26.7998319,69.7019417 34.2361765,69.7019417 C41.6710714,69.7019417 49.107416,68.3416202 56.5017227,65.603406 C60.1981513,64.2562631 63.0828151,61.3408702 64.4164286,57.608406 C69.8364076,42.6419417 69.8088655,27.4719417 64.3729412,12.5069417" id="Fill-1" fill="#000000" mask="url(#mask-3)"></path>
                </g>
                <path d="M34.978399,53.0415113 C30.1253706,53.0415113 25.1859382,42.0932 25.1859382,35.9727441 C25.1859382,30.0879718 30.240576,28.7265693 33.5383312,28.463072 L33.5383312,40.7303336 C33.5383312,41.5354641 34.1863617,42.1942072 34.978399,42.1942072 C35.7704363,42.1942072 36.4184668,41.5354641 36.4184668,40.7303336 L36.4184668,28.463072 C39.7018213,28.7265693 44.7708598,30.1026106 44.7708598,35.9727441 C44.7564591,42.0932 39.8314274,53.0415113 34.978399,53.0415113 M34.978399,22.2855251 C37.1817027,22.2855251 39.0393901,23.8811474 39.4570097,26.0037642 C38.103346,25.6670733 36.6056756,25.4767697 34.9639983,25.4767697 C33.3367217,25.4767697 31.8390512,25.6670733 30.4853875,26.0037642 C30.9174079,23.8811474 32.7750953,22.2855251 34.978399,22.2855251 M50.3439221,39.983758 L47.5357899,37.7147538 C47.5933926,37.1145655 47.6509953,36.5143773 47.6509953,35.9873828 C47.6509953,34.2160956 47.2765777,32.6497508 46.5997459,31.2737095 L50.0847099,29.2843052 C50.5455316,29.019344 50.8191444,28.5362657 50.8191444,28.0092712 L50.8191444,22.9442682 C50.8191444,22.1391377 50.1711139,21.4803945 49.3790767,21.4803945 C48.5870394,21.4803945 47.9390089,22.1391377 47.9390089,22.9442682 L47.9390089,27.1602245 L44.8860652,28.9022342 C44.180432,28.1995748 43.3739941,27.5993866 42.43795,27.1177721 C42.43795,27.0577533 42.4523507,27.0138371 42.4523507,26.9552821 C42.4523507,25.0083301 41.7035155,23.2516817 40.5082592,21.9049179 L40.5082592,19.7984037 C40.5082592,18.2159562 41.7755188,16.9277474 43.330792,16.9277474 C44.1228293,16.9277474 44.7708598,16.2690042 44.7708598,15.4638737 C44.7708598,14.6587432 44.1228293,14 43.330792,14 C40.1914443,14 37.6281237,16.6056952 37.6281237,19.7984037 L37.6281237,19.8847722 C36.807285,19.56272 35.914443,19.3724164 34.9927997,19.3724164 C34.0711563,19.3724164 33.1783143,19.56272 32.3574756,19.8847722 L32.3574756,19.7984037 C32.3574756,16.6056952 29.794155,14 26.6548073,14 C25.86277,14 25.2147395,14.6587432 25.2147395,15.4638737 C25.2147395,16.2690042 25.86277,16.9277474 26.6548073,16.9277474 C28.2100805,16.9277474 29.4773401,18.2159562 29.4773401,19.7984037 L29.4773401,21.9049179 C28.2820839,23.2516817 27.5332486,25.0083301 27.5332486,26.9552821 C27.5332486,26.9991984 27.5476493,27.0577533 27.5476493,27.1016695 C26.6116053,27.5993866 25.7907666,28.1995748 25.0851334,28.9022342 L22.0321898,27.1602245 L22.0321898,22.9442682 C22.0321898,22.1391377 21.3841593,21.4803945 20.592122,21.4803945 C19.8000847,21.4803945 19.1520542,22.1391377 19.1520542,22.9442682 L19.1520542,28.0092712 C19.1520542,28.5362657 19.4256671,29.019344 19.8864888,29.2843052 L23.3714528,31.2737095 C22.6802202,32.6497508 22.3202033,34.2160956 22.3202033,35.9873828 C22.3202033,36.5290161 22.3634053,37.1145655 22.4354087,37.7308564 L19.6272766,39.9983967 C18.5904278,40.8328047 18,42.0932 18,43.4384999 L18,46.8507894 C18,47.6544561 18.6480305,48.3146631 19.4400678,48.3146631 C20.232105,48.3146631 20.8801355,47.6544561 20.8801355,46.8507894 L20.8801355,43.4384999 C20.8801355,42.984699 21.081745,42.5748144 21.4273613,42.2966784 L23.0258365,41.0084696 C23.4722575,42.8251368 24.1058873,44.7267087 24.926726,46.543376 C22.8386277,48.6806316 21.7009742,51.5190826 21.7009742,54.5361263 C21.7009742,55.339793 22.3490047,56 23.1410419,56 C23.9330792,56 24.5811097,55.339793 24.5811097,54.5361263 C24.5811097,52.6169879 25.2291402,50.831062 26.3811944,49.3525496 C28.5988988,53.1161688 31.5798391,56 35.0072003,56 C38.4345616,56 41.4155019,53.1161688 43.6332063,49.3393747 C44.7852605,50.8164233 45.433291,52.6169879 45.433291,54.5361263 C45.433291,55.339793 46.0813215,56 46.8733587,56 C47.665396,56 48.3134265,55.339793 48.3134265,54.5361263 C48.3134265,51.5190826 47.1613723,48.6806316 45.073274,46.543376 C45.8941127,44.7135339 46.5421432,42.8090342 46.9741635,41.0084696 L48.5726387,42.2966784 C48.918255,42.5748144 49.1198645,42.9993378 49.1198645,43.4384999 L49.1198645,46.8507894 C49.1198645,47.6544561 49.767895,48.3146631 50.5599322,48.3146631 C51.3519695,48.3146631 52,47.6544561 52,46.8507894 L52,43.4384999 C51.9711986,42.0624586 51.3807709,40.818166 50.3439221,39.983758" id="Fill-4" fill="#000000"></path>
            </g>
        </g>
    </g>
</svg>