<?xml version="1.0" encoding="UTF-8"?>
<svg width="88px" height="89px" viewBox="0 0 88 89" version="1.1" xmlns="http://www.w3.org/2000/svg" xmlns:xlink="http://www.w3.org/1999/xlink">
    <title>Group</title>
    <defs>
        <filter id="filter-1">
            <feColorMatrix in="SourceGraphic" type="matrix" values="0 0 0 0 1.000000 0 0 0 0 1.000000 0 0 0 0 1.000000 0 0 0 1.000000 0"></feColorMatrix>
        </filter>
    </defs>
    <g id="Page-1" stroke="none" stroke-width="1" fill="none" fill-rule="evenodd">
        <g id="Group" transform="translate(-436.000000, -616.000000)" filter="url(#filter-1)">
            <g transform="translate(436.000000, 616.000000)">
                <path d="M44,0.36218 C19.723164,0.36218 0,20.08531 0,44.36218 C0,68.63898 19.723164,88.3623809 44,88.3623809 C44.7212718,88.3723806 45.3921627,87.9934294 45.7557754,87.3704343 C46.1193882,86.7474392 46.1193882,85.9769208 45.7557754,85.3539257 C45.3921627,84.7309306 44.7212718,84.3519794 44,84.36218 C21.884925,84.36218 4,66.47718 4,44.36218 C4,22.24707 21.884925,4.36218 44,4.36218 C66.115082,4.36218 84,22.24707 84,44.36218 C84,63.87158 70.04021,80.08953 51.59375,83.64343 C50.8903833,83.7829868 50.3148984,84.2871843 50.0840749,84.9660962 C49.8532514,85.645008 50.0021568,86.3954913 50.4746999,86.9348462 C50.947243,87.4742012 51.6716334,87.7204869 52.375,87.58093 C72.675378,83.66983 88,65.77858 88,44.36218 C88,20.08531 68.276842,0.36218 44,0.36218 Z M31.75,21.36218 C30.7440874,21.4889723 29.992142,22.3483385 29.999939,23.36218 L29.999939,65.36218 C30.0067577,66.0930871 30.4116673,66.7621047 31.0560716,67.1070888 C31.7004758,67.4520728 32.4817446,67.4180801 33.09375,67.01843 L65.09375,46.01843 C65.6568313,45.648623 65.9959363,45.020215 65.9959363,44.346555 C65.9959363,43.672895 65.6568313,43.044487 65.09375,42.67468 L33.09375,21.67468 C32.6970682,21.4144494 32.2208029,21.30369 31.75,21.36218 Z M34,27.04968 L60.34375,44.36218 L34,61.64343 L34,27.04968 Z" id="Shape" fill="#000000" fill-rule="nonzero"></path>
            </g>
        </g>
    </g>
</svg>