<?xml version="1.0" encoding="UTF-8"?>
<svg width="65px" height="89px" viewBox="0 0 65 89" version="1.1" xmlns="http://www.w3.org/2000/svg" xmlns:xlink="http://www.w3.org/1999/xlink">
    <title>Group</title>
    <defs>
        <filter id="filter-1">
            <feColorMatrix in="SourceGraphic" type="matrix" values="0 0 0 0 1.000000 0 0 0 0 1.000000 0 0 0 0 1.000000 0 0 0 1.000000 0"></feColorMatrix>
        </filter>
    </defs>
    <g id="Page-1" stroke="none" stroke-width="1" fill="none" fill-rule="evenodd">
        <g id="Group" transform="translate(-926.000000, -616.000000)" filter="url(#filter-1)">
            <g transform="translate(926.000000, 616.000000)" fill="#000000" fill-rule="nonzero" id="Shape">
                <path d="M64.1851874,16.6219396 C64.1917611,16.6877291 64.1951537,16.7541178 64.1951537,16.8209031 L64.1951537,86.9969713 C64.1951537,88.0978572 63.3024044,88.9906065 62.2015184,88.9906065 L1.99363525,88.9906065 C0.892555446,88.9906065 0,88.0978572 0,86.9969713 L0,2.8654299 C0,1.76454396 0.892555446,0.871794653 1.99363525,0.871794653 L48.2460452,0.871794653 C48.3128305,0.871794653 48.3792192,0.875187228 48.4454141,0.88156703 C48.4936591,0.886351881 48.5409084,0.894723168 48.5881577,0.902891782 C48.6049003,0.905887822 48.6220482,0.907280099 48.6387908,0.910672673 C48.6958125,0.922031188 48.7516357,0.936791089 48.8068598,0.952934455 C48.8136361,0.954925941 48.8204125,0.956124356 48.8271888,0.958115842 C48.8832148,0.975263762 48.9380423,0.995398911 48.9918652,1.01712901 C48.9978485,1.0197197 49.0042283,1.02131465 49.0104054,1.02391416 C49.0612412,1.04504505 49.1104908,1.06896931 49.1589297,1.09408317 C49.1681029,1.09886802 49.1778752,1.1028598 49.1870396,1.10764465 C49.2307025,1.1309697 49.2723739,1.15708812 49.3140364,1.18360307 C49.3273952,1.19217703 49.3415471,1.19974644 49.3549059,1.20852307 C49.3919863,1.23344307 49.4272779,1.26095376 49.4625607,1.28827059 C49.4787129,1.30082752 49.4958608,1.31218604 49.5118103,1.32514832 C49.5482915,1.3552497 49.5823847,1.38774792 49.6166717,1.42024614 C49.6294313,1.43220386 49.6431866,1.44297198 49.6557436,1.45552891 L63.6112167,15.4110021 C63.6235798,15.423559 63.6343391,15.4373144 63.6464995,15.450074 C63.6789977,15.4843698 63.7114959,15.5184542 63.7415973,15.5549442 C63.7547535,15.5708937 63.7659181,15.5880328 63.7784839,15.6043876 C63.8057919,15.6396704 63.8333114,15.6747593 63.8582314,15.7120424 C63.8672019,15.7254012 63.8745774,15.7395531 63.8831514,15.7531057 C63.9096663,15.7947771 63.9357759,15.8364397 63.9591098,15.8801026 C63.9640885,15.8892757 63.9678776,15.8990393 63.9726625,15.9082125 C63.9977851,15.9568629 64.0217094,16.005901 64.0428403,16.0567367 C64.045431,16.06272 64.0472286,16.0690998 64.0496166,16.0752769 C64.0713467,16.1291087 64.0914819,16.1839362 64.1086298,16.2399534 C64.1106213,16.2467297 64.1118197,16.2535149 64.1138112,16.2602912 C64.1299634,16.3155152 64.1447145,16.3713385 64.156073,16.4283514 C64.1594655,16.4451028 64.1608578,16.4622419 64.1638539,16.4789933 C64.1720225,16.5264452 64.1804026,16.5734919 64.1851874,16.6219396 Z M50.2396805,7.67867327 L50.2396805,14.827259 L57.388275,14.827259 L50.2396805,7.67867327 Z M3.98727931,85.0033272 L60.2078744,85.0033272 L60.2078744,18.8145383 L48.2460452,18.8145383 C47.1451593,18.8145383 46.25241,17.921789 46.25241,16.8209031 L46.25241,4.85907396 L3.98727931,4.85907396 L3.98727931,85.0033272 Z M48.7294034,62.572948 C49.9882423,62.572948 50.9773319,63.5620376 50.9773319,64.8208765 C50.9773319,66.0797154 49.9882423,66.9788886 48.7294034,66.9788886 L13.4818786,66.9788886 C12.2230397,66.9788886 11.3238665,66.0797154 11.3238665,64.8208765 C11.3238665,63.5620376 12.2230397,62.572948 13.4818786,62.572948 L48.7294034,62.572948 Z M31.105641,35.2381313 C29.8468021,35.2381313 28.9476289,34.3389581 28.9476289,33.0801192 C28.9476289,31.8212803 29.8468021,30.8321907 31.105641,30.8321907 L48.6394869,30.8321907 C49.8983258,30.8321907 50.797499,31.8212803 50.797499,33.0801192 C50.797499,34.3389581 49.8983258,35.2381313 48.6394869,35.2381313 L31.105641,35.2381313 Z M13.4818786,45.8483588 C12.2230397,45.8483588 11.3238665,44.8592692 11.3238665,43.6004303 C11.3238665,42.3415914 12.2230397,41.4424182 13.4818786,41.4424182 L48.7294034,41.4424182 C49.9882423,41.4424182 50.9773319,42.3415914 50.9773319,43.6004303 C50.9773319,44.8592692 49.9882423,45.8483588 48.7294034,45.8483588 L13.4818786,45.8483588 Z M13.4818786,56.3686611 C12.2230397,56.3686611 11.3238665,55.4694879 11.3238665,54.210649 C11.3238665,52.9518101 12.2230397,51.9627205 13.4818786,51.9627205 L48.7294034,51.9627205 C49.9882423,51.9627205 50.9773319,52.9518101 50.9773319,54.210649 C50.9773319,55.4694879 49.9882423,56.3686611 48.7294034,56.3686611 L13.4818786,56.3686611 Z M13.6693161,29.3575224 L13.9303417,29.3575224 C14.6388522,29.3575224 15.2758807,29.6278709 15.8414537,30.1685767 C16.4070178,30.7092826 16.6897911,31.383603 16.6897911,32.1915467 C16.6897911,32.9870746 16.4070178,33.642749 15.8414537,34.1585877 C15.2758807,34.6744352 14.5767108,34.932359 13.7438999,34.932359 C12.8365052,34.932359 12.0813887,34.5687808 11.4785327,33.8416244 C10.8756766,33.1144679 10.5742574,32.0796887 10.5742574,30.7372427 C10.5742574,29.5066723 10.8383936,28.353805 11.3666658,27.2786146 C11.8949469,26.2034152 12.5412896,25.3519672 13.3057379,24.7242529 C14.0701862,24.0965385 14.750719,23.7826857 15.3473627,23.7826857 C15.7451222,23.7826857 16.0558644,23.9007738 16.2796068,24.136941 C16.5033493,24.3731082 16.6152161,24.677638 16.6152161,25.0505392 C16.6152161,25.5974662 16.3728365,26.0014293 15.8880597,26.2624637 C15.2292747,26.6229313 14.7072148,27.0455491 14.3218888,27.5303171 C13.9365541,28.0150851 13.7190328,28.6241536 13.6693161,29.3575224 Z M21.9103725,29.3575224 L22.1527609,29.3575224 C22.8488378,29.3575224 23.479654,29.6278709 24.0452181,30.1685767 C24.6107823,30.7092826 24.8935644,31.383603 24.8935644,32.1915467 C24.8935644,32.974641 24.6107823,33.633426 24.0452181,34.1679107 C23.479654,34.7024042 22.7804752,34.9696421 21.9476644,34.9696421 C21.027845,34.9696421 20.2696266,34.5967497 19.672983,33.8509473 C19.0763393,33.105145 18.7780307,32.0672551 18.7780307,30.7372427 C18.7780307,29.7801314 18.9334018,28.8789755 19.2441528,28.0337311 C19.5549038,27.1884866 19.955765,26.4520249 20.4467454,25.8243105 C20.9377347,25.1965873 21.4659981,24.6993946 22.0315711,24.3327146 C22.5971352,23.9660257 23.103651,23.7826857 23.5511271,23.7826857 C23.9613202,23.7826857 24.275173,23.8976632 24.4926943,24.127618 C24.7102244,24.3575729 24.8189806,24.6652133 24.8189806,25.0505392 C24.8189806,25.609891 24.576601,26.0138629 24.091833,26.2624637 C23.4081808,26.6477896 22.8923421,27.073518 22.5442992,27.5396401 C22.1962651,28.0057622 21.9849562,28.61172 21.9103725,29.3575224 Z"></path>
            </g>
        </g>
    </g>
</svg>