<?xml version="1.0" encoding="UTF-8"?>
<svg width="34px" height="34px" viewBox="0 0 34 34" version="1.1" xmlns="http://www.w3.org/2000/svg" xmlns:xlink="http://www.w3.org/1999/xlink">
    <title>iconmonstr-twitter-5</title>
    <defs>
        <filter id="filter-1">
            <feColorMatrix in="SourceGraphic" type="matrix" values="0 0 0 0 0.000000 0 0 0 0 0.000000 0 0 0 0 0.000000 0 0 0 0.250000 0"></feColorMatrix>
        </filter>
    </defs>
    <g id="Page-1" stroke="none" stroke-width="1" fill="none" fill-rule="evenodd">
        <g id="Group-2" transform="translate(-1556.000000, -129.000000)" filter="url(#filter-1)">
            <g transform="translate(1502.000000, 129.000000)">
                <g id="iconmonstr-twitter-5" transform="translate(54.000000, 0.000000)" fill="#000000" fill-rule="nonzero">
                    <path d="M17,2.83333333 C24.8115,2.83333333 31.1666667,9.1885 31.1666667,17 C31.1666667,24.8115 24.8115,31.1666667 17,31.1666667 C9.1885,31.1666667 2.83333333,24.8115 2.83333333,17 C2.83333333,9.1885 9.1885,2.83333333 17,2.83333333 Z M17,0 C7.61175,0 0,7.61175 0,17 C0,26.38825 7.61175,34 17,34 C26.38825,34 34,26.38825 34,17 C34,7.61175 26.38825,0 17,0 Z M26.2083333,12.4355 C25.5835833,12.7131667 24.9106667,12.9001667 24.2051667,12.9851667 C24.92625,12.5530833 25.4773333,11.87025 25.7394167,11.0556667 C25.0650833,11.4551667 24.3185,11.7455833 23.52375,11.9014167 C22.8890833,11.2228333 21.981,10.79925 20.9794167,10.79925 C18.7269167,10.79925 17.07225,12.9001667 17.5808333,15.0818333 C14.68375,14.9359167 12.1125,13.5475833 10.3926667,11.4381667 C9.47891667,13.005 9.9195,15.0563333 11.4721667,16.09475 C10.90125,16.0763333 10.3643333,15.9190833 9.894,15.6584167 C9.85575,17.2734167 11.0145833,18.785 12.6919167,19.1221667 C12.20175,19.2553333 11.6634167,19.2865 11.1165833,19.1816667 C11.56,20.5671667 12.8505833,21.5744167 14.3749167,21.60275 C12.9058333,22.7530833 11.0599167,23.2673333 9.20833333,23.0491667 C10.7525,24.0394167 12.58425,24.616 14.5534167,24.616 C21.0304167,24.616 24.68825,19.14625 24.46725,14.2403333 C25.1500833,13.7501667 25.7408333,13.1353333 26.2083333,12.4355 L26.2083333,12.4355 Z" id="Shape"></path>
                </g>
            </g>
        </g>
    </g>
</svg>