<?xml version="1.0" encoding="UTF-8"?>
<svg width="34px" height="34px" viewBox="0 0 34 34" version="1.1" xmlns="http://www.w3.org/2000/svg" xmlns:xlink="http://www.w3.org/1999/xlink">
    <title>iconmonstr-youtube-10</title>
    <defs>
        <filter id="filter-1">
            <feColorMatrix in="SourceGraphic" type="matrix" values="0 0 0 0 0.000000 0 0 0 0 0.000000 0 0 0 0 0.000000 0 0 0 0.250000 0"></feColorMatrix>
        </filter>
    </defs>
    <g id="Page-1" stroke="none" stroke-width="1" fill="none" fill-rule="evenodd">
        <g id="Group-2" transform="translate(-1610.000000, -129.000000)" filter="url(#filter-1)">
            <g transform="translate(1502.000000, 129.000000)">
                <g id="iconmonstr-youtube-10" transform="translate(108.000000, 0.000000)" fill="#000000" fill-rule="nonzero">
                    <path d="M22.9925,10.0611667 C20.1563333,9.8685 13.838,9.86991667 11.0060833,10.0611667 C7.939,10.2708333 7.57916667,12.1238333 7.55508333,17 C7.57916667,21.8676667 7.93758333,23.7291667 11.0075,23.9388333 C13.8394167,24.1300833 20.15775,24.1315 22.9939167,23.9388333 C26.061,23.7291667 26.42225,21.87475 26.4463333,17 C26.4208333,12.1323333 26.0624167,10.2708333 22.9925,10.0611667 L22.9925,10.0611667 Z M14.1666667,20.1478333 L14.1666667,13.8521667 L20.9355,16.9943333 L14.1666667,20.1478333 Z M17,2.83333333 C24.8115,2.83333333 31.1666667,9.1885 31.1666667,17 C31.1666667,24.8115 24.8115,31.1666667 17,31.1666667 C9.1885,31.1666667 2.83333333,24.8115 2.83333333,17 C2.83333333,9.1885 9.1885,2.83333333 17,2.83333333 Z M17,0 C7.61175,0 0,7.61175 0,17 C0,26.38825 7.61175,34 17,34 C26.38825,34 34,26.38825 34,17 C34,7.61175 26.38825,0 17,0 Z" id="Shape"></path>
                </g>
            </g>
        </g>
    </g>
</svg>